<mxfile host="app.diagrams.net" modified="2023-09-21T17:59:57.837Z" agent="Mozilla/5.0 (X11; Ubuntu; Linux x86_64; rv:109.0) Gecko/20100101 Firefox/117.0" version="21.8.0" etag="gTLoYVTZaMx7l82OGRTU" type="github">
  <diagram name="PÃ¡gina-1" id="jf259fgjOjg_yHpygnGp">
    <mxGraphModel>
      <root>
        <mxCell id="0" />
        <mxCell id="1" parent="0" />
      </root>
    </mxGraphModel>
  </diagram>
</mxfile>
